<?xml version="1.0" encoding="UTF-8" standalone="no"?>
<!-- Created with Inkscape (http://www.inkscape.org/) by Marsupilami -->
<svg
   xmlns:svg="http://www.w3.org/2000/svg"
   xmlns="http://www.w3.org/2000/svg"
   version="1.0"
   width="1024"
   height="373"
   viewBox="0 0 81.858002 29.8535"
   id="svg3038">
  <defs
     id="defs3040" />
  <g
     transform="translate(-353.35671,-886.00686)"
     id="layer1">
    <path
       d="M 69.3125,0 L 65.9375,5.90625 L 12.28125,5.875 C 7.6718803,5.8750001 3.90625,9.64313 3.90625,14.25 C 3.9062501,16.479 4.79788,18.57913 6.375,20.15625 C 7.957,21.73338 10.04238,22.625 12.28125,22.625 L 26.09375,22.59375 L 26.09375,19.21875 L 12.28125,19.21875 C 10.95063,19.21875 9.69487,18.69487 8.75,17.75 C 7.8125,16.81012 7.3125,15.58063 7.3125,14.25 C 7.3125,12.92188 7.8125,11.66113 8.75,10.71875 C 9.69487,9.7763805 10.95063,9.28125 12.28125,9.28125 C 12.28125,9.2812496 66.63238,9.28125 67.875,9.28125 L 71.25,3.375 L 76.03125,3.375 L 72.625,9.28125 C 74.067881,9.2812496 75.396,9.28125 76.53125,9.28125 L 81.84375,0 L 69.3125,0 z M 12.28125,12.53125 L 12.28125,15.90625 L 26.46875,15.90625 C 27.90425,15.90625 29.23438,16.4555 30.25,17.46875 C 31.26075,18.48188 31.8125,19.82188 31.8125,21.25 C 31.8125,24.20663 29.42525,26.46875 26.46875,26.46875 L 1.6875,26.46875 L 0,29.84375 L 26.46875,29.84375 C 28.80263,29.84375 30.977,29.0805 32.625,27.4375 C 34.275378,25.782131 35.1875,23.584 35.1875,21.25 C 35.187501,19.28225 34.50138,17.42962 33.3125,15.90625 L 38.9375,15.90625 L 38.9375,29.84375 L 42.3125,29.84375 L 42.3125,12.53125 L 12.28125,12.53125 z M 47.1875,12.53125 L 47.1875,29.84375 L 50.5625,29.84375 L 50.5625,15.90625 L 60.15625,15.90625 L 52.125,29.84375 L 56.03125,29.84375 L 66,12.53125 L 47.1875,12.53125 z M 70.75,12.53125 L 60.78125,29.84375 L 64.6875,29.84375 L 74.65625,12.53125 L 70.75,12.53125 z "
       transform="translate(353.35671,886.00686)"
       style="fill:#c90033;fill-opacity:1;fill-rule:nonzero;stroke:none"
       id="path14576" />
  </g>
</svg>
